<?xml version="1.0" encoding="utf-8"?>
<!DOCTYPE svg PUBLIC "-//W3C//DTD SVG 1.0//EN" "http://www.w3.org/TR/2001/REC-SVG-20010904/DTD/svg10.dtd">
<svg version="1.0" xmlns="http://www.w3.org/2000/svg" width="200px" height="200px" viewBox="0 0 200 200" preserveAspectRatio="xMidYMid meet">
 <g fill="#000000">
  <path d="M 34.4 137.7 c -0.2 -0.7 -0.3 -5.8 -0.2 -11.3 l 0.3 -9.9 2.8 -0.3 2.7 -0.3 0 9 0 9.1 3.5 0 3.5 0 0 1.3 c 0 0.7 -0.5 1.8 -1.2 2.5 l -1.2 1.2 -4.8 0 -4.9 0 -0.5 -1.3 z "/>
  <path d="M 52.4 135.7 l -3.7 -3.4 0.7 -3.6 0.7 -3.6 2.6 -2.1 2.6 -2 2.8 0 c 1.5 0 3.5 0.3 4.4 0.6 l 1.6 0.6 1.4 2.9 c 0.8 1.5 1.5 3.7 1.5 4.9 l 0 2 -5.5 0 -5.5 0 0 0.9 c 0 0.5 0.7 1.2 1.6 1.5 l 1.7 0.6 3.6 -0.6 3.5 -0.7 -1.5 2.4 -1.6 2.4 -3.6 0.3 -3.6 0.3 -3.7 -3.4 z  m 8.1 -8.7 l -0.6 -1 -1.9 0 -1.9 0 -0.6 1 -0.6 1 3.1 0 3.1 0 -0.6 -1 z "/>
  <path d="M87.9 129.7 C 87.9 134.8 83.7 139 78.6 139 73.4 139 69.2 134.8 69.2 129.7 69.2 124.5 73.4 120.3 78.6 120.3 83.7 120.3 87.9 124.5 87.9 129.7 Z M72.5 135.9  m 8.4 -2.3 l 1.2 -1.5 -0.3 -2.8 -0.3 -2.8 -3 0 -3 0 -0.3 2.8 -0.3 2.8 1.2 1.5 c 0.6 0.8 1.7 1.4 2.4 1.4 0.7 0 1.8 -0.6 2.4 -1.4 z "/>
  <path d="M 92.2 137.8 l -1.2 -1.2 0 -7.2 0 -7.1 6 -0.6 5.9 -0.7 1.4 0.6 1.4 0.5 1.2 2.5 1.1 2.5 0 4.7 0 4.8 -1.1 1.1 -1.1 1.1 -1.4 -0.5 -1.4 -0.5 0 -4.3 c 0 -2.4 -0.3 -5 -0.6 -5.9 l -0.6 -1.6 -2.4 0 -2.3 0 -0.5 3.3 c -0.3 1.7 -0.7 4.5 -0.8 6.1 l -0.3 2.9 -1 0.4 -1.1 0.3 -1.2 -1.2 z "/>
  <path d="M 114.9 137.3 c -3.4 -2.4 -3.9 -3.3 -3.9 -7.6 l 0 -3.8 2.4 -2.4 2.4 -2.4 7.1 0 7.1 0 0 7.9 0 7.9 -1.2 0.7 c -0.6 0.4 -3.5 0.9 -6.3 1 l -5.2 0.3 -2.4 -1.6 z  m 7.2 -3.3 l 1.9 -1.1 0 -2.3 0 -2.4 -1.5 -1.2 -1.4 -1.2 -1.8 0.4 -1.8 0.3 -0.3 2.8 -0.3 2.8 1.2 1.5 c 1.4 1.7 1.5 1.7 4 0.4 z "/>
  <path d="M 135.3 138.3 l -1.3 -0.5 0 -8.4 0 -8.4 4.7 0.3 4.8 0.3 0.3 1.7 0.3 1.7 -2.5 1 -2.6 1 0 6 0 6 -1.2 -0.1 c -0.7 0 -1.9 -0.3 -2.5 -0.6 z "/>
  <path d="M 149.8 135.9 l -2.8 -2.7 0 -2.9 0 -2.8 2.4 -3 2.4 -2.9 4.1 0.1 4.1 0.2 0 -4 0 -3.9 0.9 0 c 0.5 0 1.6 0.3 2.5 0.6 l 1.6 0.6 0 11.7 0 11.8 -6.2 0 -6.3 0 -2.7 -2.8 z  m 9.5 -3 l 1 -1.6 -0.6 -2.5 -0.7 -2.6 -1.8 -0.4 -1.9 -0.5 -1.7 0.9 -1.6 0.9 0 3.3 c 0 1.8 0.3 3.6 0.7 4 l 0.7 0.7 2.5 -0.3 2.4 -0.3 1 -1.6 z "/>
  <path d="M 82.8 99.3 l -6.8 -6.9 0 -16.1 0 -16.1 1.6 -0.6 c 0.9 -0.3 5.6 -0.6 10.5 -0.6 l 8.9 0 0 -6.2 0 -6.2 13.4 12.9 13.3 13 0.2 17 0.1 16.9 -7 -6.9 -7 -6.9 0 -10.3 0 -10.3 -10 0 -10 0 -0.2 17 -0.3 17.1 -6.7 -6.8 z "/>
 </g>
</svg>